<svg xmlns="http://www.w3.org/2000/svg" width="1029.5" height="192.0" viewBox="-204.00 -156.00 1029.50 192.00" fill="#7aa2f7" role="img" aria-label="Loadout">
  <svg x="-192.00" y="-144.00" width="168.00" height="168.00" viewBox="0 0 16 16"><path d="M4.04 7.43a4 4 0 0 1 7.92 0 .5.5 0 1 1-.99.14 3 3 0 0 0-5.94 0 .5.5 0 1 1-.99-.14"/><path fill-rule="evenodd" d="M4 9.5a.5.5 0 0 1 .5-.5h7a.5.5 0 0 1 .5.5v4a.5.5 0 0 1-.5.5h-7a.5.5 0 0 1-.5-.5zm1 .5v3h6v-3h-1v.5a.5.5 0 0 1-1 0V10z"/><path d="M6 2.341V2a2 2 0 1 1 4 0v.341c2.33.824 4 3.047 4 5.659v1.191l1.17.585a1.5 1.5 0 0 1 .83 1.342V13.5a1.5 1.5 0 0 1-1.5 1.5h-1c-.456.607-1.182 1-2 1h-7a2.5 2.5 0 0 1-2-1h-1A1.5 1.5 0 0 1 0 13.5v-2.382a1.5 1.5 0 0 1 .83-1.342L2 9.191V8a6 6 0 0 1 4-5.659M7 2v.083a6 6 0 0 1 2 0V2a1 1 0 0 0-2 0M3 13.5A1.5 1.5 0 0 0 4.5 15h7a1.5 1.5 0 0 0 1.5-1.5V8A5 5 0 0 0 3 8zm-1-3.19-.724.362a.5.5 0 0 0-.276.447V13.5a.5.5 0 0 0 .5.5H2zm12 0V14h.5a.5.5 0 0 0 .5-.5v-2.382a.5.5 0 0 0-.276-.447L14 10.309Z"/></svg>
  <g transform="translate(-2.98 0.00) scale(0.14888 -0.14888)"><path d="M20.0 0V164H70.0V614H20.0V778H442.0V614H350.0V164H440.0V256H639.0V0ZM682.0 389Q682.0 600 781.5 696.0Q881.0 792 1064.0 792Q1247.0 792 1346.5 696.0Q1446.0 600 1446.0 389Q1446.0 178 1346.5 82.0Q1247.0 -14 1064.0 -14Q881.0 -14 781.5 82.0Q682.0 178 682.0 389ZM1132.0 238V540Q1132.0 578 1115.0 596.0Q1098.0 614 1064.0 614Q1030.0 614 1013.0 596.0Q996.0 578 996.0 540V238Q996.0 199 1013.0 181.5Q1030.0 164 1064.0 164Q1098.0 164 1115.0 182.0Q1132.0 200 1132.0 238ZM2229.0 164H2269.0V0H1877.0V164H1937.0L1921.0 244H1785.0L1769.0 164H1829.0V0H1487.0V164H1527.0L1696.0 778H2060.0ZM1807.0 350H1899.0L1858.0 549H1848.0ZM2316.0 164H2366.0V613H2316.0V778H2722.0Q2889.0 778 2987.5 686.5Q3086.0 595 3086.0 389Q3086.0 183 2987.5 91.5Q2889.0 0 2722.0 0H2316.0ZM2704.0 164Q2738.0 164 2755.0 182.0Q2772.0 200 2772.0 238V540Q2772.0 614 2704.0 614H2646.0V164ZM3129.0 389Q3129.0 600 3228.5 696.0Q3328.0 792 3511.0 792Q3694.0 792 3793.5 696.0Q3893.0 600 3893.0 389Q3893.0 178 3793.5 82.0Q3694.0 -14 3511.0 -14Q3328.0 -14 3228.5 82.0Q3129.0 178 3129.0 389ZM3579.0 238V540Q3579.0 578 3562.0 596.0Q3545.0 614 3511.0 614Q3477.0 614 3460.0 596.0Q3443.0 578 3443.0 540V238Q3443.0 199 3460.0 181.5Q3477.0 164 3511.0 164Q3545.0 164 3562.0 182.0Q3579.0 200 3579.0 238ZM3988.0 279V614H3938.0V778H4308.0V614H4268.0V228Q4268.0 195 4282.5 179.5Q4297.0 164 4326.0 164Q4355.0 164 4369.5 179.5Q4384.0 195 4384.0 228V614H4344.0V778H4687.0V614H4637.0V279Q4637.0 124 4554.0 55.0Q4471.0 -14 4316.0 -14Q4159.0 -14 4073.5 55.0Q3988.0 124 3988.0 279ZM5484.0 536H5312.0V614H5248.0V164H5318.0V0H4898.0V164H4968.0V614H4904.0V536H4732.0V778H5484.0Z"/></g>
</svg>
